<?xml version="1.0" standalone="no"?>
<!DOCTYPE svg PUBLIC "-//W3C//DTD SVG 20010904//EN"
 "http://www.w3.org/TR/2001/REC-SVG-20010904/DTD/svg10.dtd">
<svg version="1.0" xmlns="http://www.w3.org/2000/svg"
 width="260.000000pt" height="260.000000pt" viewBox="0 0 260.000000 260.000000"
 preserveAspectRatio="xMidYMid meet">
<metadata>
Created by potrace 1.10, written by Peter Selinger 2001-2011
</metadata>
<g transform="translate(0.000000,260.000000) scale(0.100000,-0.100000)"
fill="#000000" stroke="none">
<path d="M490 1673 l-85 -4 0 -420 0 -420 115 3 115 3 -3 195 c-1 139 1 189 8
175 6 -11 46 -101 89 -200 l79 -180 36 0 c37 0 37 1 67 75 16 41 34 84 39 95
5 11 23 56 40 99 60 153 59 154 60 -66 l0 -198 119 0 118 0 -1 423 -1 422
-109 -2 c-60 -2 -111 -4 -113 -6 -2 -2 -46 -96 -99 -208 -52 -112 -100 -209
-106 -216 -15 -19 -26 -8 -56 60 -15 34 -59 131 -99 217 -82 176 -59 159 -213
153z"/>
<path d="M1495 1673 c-101 -7 -90 44 -89 -425 l0 -413 117 -3 c90 -2 117 0
118 10 0 7 0 110 0 228 -1 206 0 214 17 194 9 -12 69 -90 132 -174 63 -84 134
-177 158 -206 l43 -54 98 0 98 0 7 393 c4 215 8 403 9 417 l2 25 -118 3 c-90
2 -119 0 -122 -10 -3 -8 -2 -100 2 -205 5 -106 6 -202 3 -213 -5 -21 -6 -20
-31 7 -14 15 -52 64 -84 108 -32 44 -78 107 -102 140 -24 33 -64 88 -89 123
-51 68 -37 64 -169 55z"/>
</g>
</svg>
